<svg xmlns="http://www.w3.org/2000/svg" width="25" height="25" viewBox="0 0 25 25">
  <g id="Icon_ionic-ios-checkbox-outline" data-name="Icon ionic-ios-checkbox-outline" transform="translate(-5.505 -7.239)">
    <path id="Pfad_9" data-name="Pfad 9" d="M35.373,15.132l-2.043-2.744A.4.4,0,0,0,33,12.206h0a.384.384,0,0,0-.325.182L18.515,31.021l-5.155-6.731a.381.381,0,0,0-.65,0l-2.067,2.7a.74.74,0,0,0,0,.864l6.5,8.49a1.909,1.909,0,0,0,1.358.864,2.021,2.021,0,0,0,1.347-.834h.012L35.384,16A.8.8,0,0,0,35.373,15.132Z" transform="translate(-5 -4.967)" fill="#0e9700"/>
  </g>
</svg>
