<svg xmlns="http://www.w3.org/2000/svg" width="202.061" height="197.071" viewBox="0 0 202.061 197.071">
  <g id="Gruppe_122" data-name="Gruppe 122" transform="translate(-3.375 -4.5)">
    <path id="Pfad_4" data-name="Pfad 4" d="M21.336,27.026A4.467,4.467,0,0,1,25.9,22.461H51.27V4.5h-25a22.726,22.726,0,0,0-22.9,22.526V52.4H21.336Z" fill="#fff"/>
    <path id="Pfad_5" data-name="Pfad 5" d="M48.92,4.5H23.625V22.461H48.77a4.658,4.658,0,0,1,4.79,4.565V52.4H71.52V27.026A22.493,22.493,0,0,0,48.92,4.5Z" transform="translate(133.916)" fill="#fff"/>
    <path id="Pfad_6" data-name="Pfad 6" d="M53.56,47.5a4.467,4.467,0,0,1-4.565,4.565H23.625V70.4h25.37A22.726,22.726,0,0,0,71.52,47.5v-25H53.56Z" transform="translate(133.916 131.176)" fill="#fff"/>
    <path id="Pfad_7" data-name="Pfad 7" d="M25.9,52.06A4.467,4.467,0,0,1,21.336,47.5v-25H3.375v25a23.045,23.045,0,0,0,22.9,22.9h25V52.06Z" transform="translate(0 131.176)" fill="#fff"/>
  </g>
</svg>
